<?xml version="1.0" encoding="UTF-8" standalone="no"?>
<!DOCTYPE svg PUBLIC "-//W3C//DTD SVG 1.1//EN"
 "http://www.w3.org/Graphics/SVG/1.1/DTD/svg11.dtd">
<!-- Generated by graphviz version 2.43.0 (0)
 -->
<!-- Title: %3 Pages: 1 -->
<svg width="503pt" height="165pt"
 viewBox="0.00 0.00 503.00 164.74" xmlns="http://www.w3.org/2000/svg" xmlns:xlink="http://www.w3.org/1999/xlink">
<g id="graph0" class="graph" transform="scale(1 1) rotate(0) translate(36 128.74)">
<title>%3</title>
<polygon fill="dimgray" stroke="transparent" points="-36,36 -36,-128.74 467,-128.74 467,36 -36,36"/>
<text text-anchor="middle" x="215.5" y="-77.54" font-family="Helvetica,sans-Serif" font-size="14.00">Sweep&#39;s Plan &amp; Progress</text>
<!-- start -->
<g id="node1" class="node">
<title>start</title>
</g>
<!-- 08b417ed&#45;c116&#45;4ca3&#45;8c43&#45;756aa22377b9 -->
<g id="node3" class="node">
<title>08b417ed&#45;c116&#45;4ca3&#45;8c43&#45;756aa22377b9</title>
<ellipse fill="yellow" stroke="black" cx="109.5" cy="-26.87" rx="57.05" ry="26.74"/>
<text text-anchor="middle" x="109.5" y="-30.67" font-family="Helvetica,sans-Serif" font-size="14.00">⋯ Modify</text>
<text text-anchor="middle" x="109.5" y="-15.67" font-family="Helvetica,sans-Serif" font-size="14.00">app.js</text>
</g>
<!-- start&#45;&gt;08b417ed&#45;c116&#45;4ca3&#45;8c43&#45;756aa22377b9 -->
<g id="edge2" class="edge">
<title>start&#45;&gt;08b417ed&#45;c116&#45;4ca3&#45;8c43&#45;756aa22377b9</title>
<path fill="none" stroke="black" d="M1.2,-26.87C4.83,-26.87 22.17,-26.87 41.96,-26.87"/>
<polygon fill="black" stroke="black" points="42.14,-30.37 52.14,-26.87 42.14,-23.37 42.14,-30.37"/>
<text text-anchor="middle" x="26.61" y="-33.67" font-family="Helvetica,sans-Serif" font-size="14.00">Start</text>
</g>
<!-- end -->
<g id="node2" class="node">
<title>end</title>
</g>
<!-- 9076d908&#45;6c9b&#45;4148&#45;8fbb&#45;33a28b172dff -->
<g id="node4" class="node">
<title>9076d908&#45;6c9b&#45;4148&#45;8fbb&#45;33a28b172dff</title>
<ellipse fill="white" stroke="black" cx="287.5" cy="-26.87" rx="84.71" ry="26.74"/>
<text text-anchor="middle" x="287.5" y="-30.67" font-family="Helvetica,sans-Serif" font-size="14.00">▶ Modify</text>
<text text-anchor="middle" x="287.5" y="-15.67" font-family="Helvetica,sans-Serif" font-size="14.00">test/app.test.js</text>
</g>
<!-- 08b417ed&#45;c116&#45;4ca3&#45;8c43&#45;756aa22377b9&#45;&gt;9076d908&#45;6c9b&#45;4148&#45;8fbb&#45;33a28b172dff -->
<g id="edge1" class="edge">
<title>08b417ed&#45;c116&#45;4ca3&#45;8c43&#45;756aa22377b9&#45;&gt;9076d908&#45;6c9b&#45;4148&#45;8fbb&#45;33a28b172dff</title>
<path fill="none" stroke="black" d="M166.86,-26.87C175.24,-26.87 183.61,-26.87 191.99,-26.87"/>
<polygon fill="black" stroke="black" points="192.21,-30.37 202.21,-26.87 192.21,-23.37 192.21,-30.37"/>
</g>
<!-- 9076d908&#45;6c9b&#45;4148&#45;8fbb&#45;33a28b172dff&#45;&gt;end -->
<g id="edge3" class="edge">
<title>9076d908&#45;6c9b&#45;4148&#45;8fbb&#45;33a28b172dff&#45;&gt;end</title>
<path fill="none" stroke="black" d="M372.75,-26.87C391.4,-26.87 408.75,-26.87 419.46,-26.87"/>
<polygon fill="black" stroke="black" points="419.8,-30.37 429.8,-26.87 419.8,-23.37 419.8,-30.37"/>
<text text-anchor="middle" x="401.18" y="-33.67" font-family="Helvetica,sans-Serif" font-size="14.00">Finish</text>
</g>
</g>
</svg>
