<?xml version="1.0" encoding="UTF-8" standalone="no"?>
<!DOCTYPE svg PUBLIC "-//W3C//DTD SVG 1.1//EN"
 "http://www.w3.org/Graphics/SVG/1.1/DTD/svg11.dtd">
<!-- Generated by graphviz version 2.43.0 (0)
 -->
<!-- Title: %3 Pages: 1 -->
<svg width="578pt" height="238pt"
 viewBox="0.00 0.00 577.50 237.74" xmlns="http://www.w3.org/2000/svg" xmlns:xlink="http://www.w3.org/1999/xlink">
<g id="graph0" class="graph" transform="scale(1 1) rotate(0) translate(36 201.74)">
<title>%3</title>
<polygon fill="dimgray" stroke="transparent" points="-36,36 -36,-201.74 541.5,-201.74 541.5,36 -36,36"/>
<text text-anchor="middle" x="252.75" y="-150.54" font-family="Helvetica,sans-Serif" font-size="14.00">Sweep&#39;s Plan &amp; Progress</text>
<!-- start -->
<g id="node1" class="node">
<title>start</title>
</g>
<!-- fa4ac473&#45;d9a1&#45;4f06&#45;85d5&#45;3d225f9c05ba -->
<g id="node3" class="node">
<title>fa4ac473&#45;d9a1&#45;4f06&#45;85d5&#45;3d225f9c05ba</title>
<ellipse fill="#0ee832" stroke="black" cx="150.5" cy="-99.87" rx="55.72" ry="26.74"/>
<text text-anchor="middle" x="150.5" y="-103.67" font-family="Helvetica,sans-Serif" font-size="14.00">✓ Modify</text>
<text text-anchor="middle" x="150.5" y="-88.67" font-family="Helvetica,sans-Serif" font-size="14.00">app.js</text>
</g>
<!-- start&#45;&gt;fa4ac473&#45;d9a1&#45;4f06&#45;85d5&#45;3d225f9c05ba -->
<g id="edge4" class="edge">
<title>start&#45;&gt;fa4ac473&#45;d9a1&#45;4f06&#45;85d5&#45;3d225f9c05ba</title>
<path fill="none" stroke="black" d="M43.19,-99.87C46.83,-99.87 64.42,-99.87 84.33,-99.87"/>
<polygon fill="black" stroke="black" points="84.57,-103.37 94.57,-99.87 84.57,-96.37 84.57,-103.37"/>
<text text-anchor="middle" x="68.82" y="-106.67" font-family="Helvetica,sans-Serif" font-size="14.00">Start</text>
</g>
<!-- end -->
<g id="node2" class="node">
<title>end</title>
</g>
<!-- 9815d1bc&#45;3445&#45;44e2&#45;98ec&#45;b222c0e7351a -->
<g id="node4" class="node">
<title>9815d1bc&#45;3445&#45;44e2&#45;98ec&#45;b222c0e7351a</title>
<ellipse fill="white" stroke="black" cx="348.5" cy="-99.87" rx="84.71" ry="26.74"/>
<text text-anchor="middle" x="348.5" y="-103.67" font-family="Helvetica,sans-Serif" font-size="14.00">▶ Modify</text>
<text text-anchor="middle" x="348.5" y="-88.67" font-family="Helvetica,sans-Serif" font-size="14.00">test/app.test.js</text>
</g>
<!-- fa4ac473&#45;d9a1&#45;4f06&#45;85d5&#45;3d225f9c05ba&#45;&gt;9815d1bc&#45;3445&#45;44e2&#45;98ec&#45;b222c0e7351a -->
<g id="edge2" class="edge">
<title>fa4ac473&#45;d9a1&#45;4f06&#45;85d5&#45;3d225f9c05ba&#45;&gt;9815d1bc&#45;3445&#45;44e2&#45;98ec&#45;b222c0e7351a</title>
<path fill="none" stroke="black" d="M206.57,-99.87C222.11,-99.87 237.65,-99.87 253.19,-99.87"/>
<polygon fill="black" stroke="black" points="253.4,-103.37 263.4,-99.87 253.4,-96.37 253.4,-103.37"/>
</g>
<!-- 2f502063&#45;3b41&#45;482a&#45;af55&#45;476dcf0d7e2c -->
<g id="node5" class="node">
<title>2f502063&#45;3b41&#45;482a&#45;af55&#45;476dcf0d7e2c</title>
<polygon fill="yellow" stroke="black" points="215,-36 0,-36 0,0 215,0 215,-36"/>
<text text-anchor="middle" x="107.5" y="-14.3" font-family="Helvetica,sans-Serif" font-size="14.00">⋯ Ran sandbox for `app.js`.</text>
</g>
<!-- fa4ac473&#45;d9a1&#45;4f06&#45;85d5&#45;3d225f9c05ba&#45;&gt;2f502063&#45;3b41&#45;482a&#45;af55&#45;476dcf0d7e2c -->
<g id="edge1" class="edge">
<title>fa4ac473&#45;d9a1&#45;4f06&#45;85d5&#45;3d225f9c05ba&#45;&gt;2f502063&#45;3b41&#45;482a&#45;af55&#45;476dcf0d7e2c</title>
<path fill="none" stroke="black" stroke-dasharray="5,2" d="M136.89,-73.6C132,-64.51 126.47,-54.24 121.54,-45.08"/>
<polygon fill="black" stroke="black" points="124.49,-43.18 116.67,-36.04 118.33,-46.5 124.49,-43.18"/>
</g>
<!-- 9815d1bc&#45;3445&#45;44e2&#45;98ec&#45;b222c0e7351a&#45;&gt;end -->
<g id="edge5" class="edge">
<title>9815d1bc&#45;3445&#45;44e2&#45;98ec&#45;b222c0e7351a&#45;&gt;end</title>
<path fill="none" stroke="black" d="M433.75,-99.87C452.4,-99.87 469.75,-99.87 480.46,-99.87"/>
<polygon fill="black" stroke="black" points="480.8,-103.37 490.8,-99.87 480.8,-96.37 480.8,-103.37"/>
<text text-anchor="middle" x="462.18" y="-106.67" font-family="Helvetica,sans-Serif" font-size="14.00">Finish</text>
</g>
<!-- 0410a4b8&#45;43c7&#45;4f96&#45;9990&#45;38aa237357b3 -->
<g id="node6" class="node">
<title>0410a4b8&#45;43c7&#45;4f96&#45;9990&#45;38aa237357b3</title>
<polygon fill="white" stroke="black" points="505.5,-36 233.5,-36 233.5,0 505.5,0 505.5,-36"/>
<text text-anchor="middle" x="369.5" y="-14.3" font-family="Helvetica,sans-Serif" font-size="14.00">▶ Ran sandbox for `test/app.test.js`.</text>
</g>
<!-- 9815d1bc&#45;3445&#45;44e2&#45;98ec&#45;b222c0e7351a&#45;&gt;0410a4b8&#45;43c7&#45;4f96&#45;9990&#45;38aa237357b3 -->
<g id="edge3" class="edge">
<title>9815d1bc&#45;3445&#45;44e2&#45;98ec&#45;b222c0e7351a&#45;&gt;0410a4b8&#45;43c7&#45;4f96&#45;9990&#45;38aa237357b3</title>
<path fill="none" stroke="black" stroke-dasharray="5,2" d="M355.38,-72.72C357.62,-64.18 360.12,-54.68 362.38,-46.08"/>
<polygon fill="black" stroke="black" points="365.83,-46.71 364.99,-36.15 359.06,-44.93 365.83,-46.71"/>
</g>
</g>
</svg>
