<?xml version="1.0" encoding="UTF-8" standalone="no"?>
<!DOCTYPE svg PUBLIC "-//W3C//DTD SVG 1.1//EN"
 "http://www.w3.org/Graphics/SVG/1.1/DTD/svg11.dtd">
<!-- Generated by graphviz version 2.43.0 (0)
 -->
<!-- Title: %3 Pages: 1 -->
<svg width="576pt" height="238pt"
 viewBox="0.00 0.00 576.00 237.74" xmlns="http://www.w3.org/2000/svg" xmlns:xlink="http://www.w3.org/1999/xlink">
<g id="graph0" class="graph" transform="scale(1 1) rotate(0) translate(36 201.74)">
<title>%3</title>
<polygon fill="dimgray" stroke="transparent" points="-36,36 -36,-201.74 540,-201.74 540,36 -36,36"/>
<text text-anchor="middle" x="252" y="-150.54" font-family="Helvetica,sans-Serif" font-size="14.00">Sweep&#39;s Plan &amp; Progress</text>
<!-- start -->
<g id="node1" class="node">
<title>start</title>
</g>
<!-- fa4ac473&#45;d9a1&#45;4f06&#45;85d5&#45;3d225f9c05ba -->
<g id="node3" class="node">
<title>fa4ac473&#45;d9a1&#45;4f06&#45;85d5&#45;3d225f9c05ba</title>
<ellipse fill="#0ee832" stroke="black" cx="148" cy="-99.87" rx="55.72" ry="26.74"/>
<text text-anchor="middle" x="148" y="-103.67" font-family="Helvetica,sans-Serif" font-size="14.00">✓ Modify</text>
<text text-anchor="middle" x="148" y="-88.67" font-family="Helvetica,sans-Serif" font-size="14.00">app.js</text>
</g>
<!-- start&#45;&gt;fa4ac473&#45;d9a1&#45;4f06&#45;85d5&#45;3d225f9c05ba -->
<g id="edge4" class="edge">
<title>start&#45;&gt;fa4ac473&#45;d9a1&#45;4f06&#45;85d5&#45;3d225f9c05ba</title>
<path fill="none" stroke="black" d="M40.69,-99.87C44.33,-99.87 61.92,-99.87 81.83,-99.87"/>
<polygon fill="black" stroke="black" points="82.07,-103.37 92.07,-99.87 82.07,-96.37 82.07,-103.37"/>
<text text-anchor="middle" x="66.32" y="-106.67" font-family="Helvetica,sans-Serif" font-size="14.00">Start</text>
</g>
<!-- end -->
<g id="node2" class="node">
<title>end</title>
</g>
<!-- 9815d1bc&#45;3445&#45;44e2&#45;98ec&#45;b222c0e7351a -->
<g id="node4" class="node">
<title>9815d1bc&#45;3445&#45;44e2&#45;98ec&#45;b222c0e7351a</title>
<ellipse fill="#0ee832" stroke="black" cx="346" cy="-99.87" rx="84.71" ry="26.74"/>
<text text-anchor="middle" x="346" y="-103.67" font-family="Helvetica,sans-Serif" font-size="14.00">✓ Modify</text>
<text text-anchor="middle" x="346" y="-88.67" font-family="Helvetica,sans-Serif" font-size="14.00">test/app.test.js</text>
</g>
<!-- fa4ac473&#45;d9a1&#45;4f06&#45;85d5&#45;3d225f9c05ba&#45;&gt;9815d1bc&#45;3445&#45;44e2&#45;98ec&#45;b222c0e7351a -->
<g id="edge2" class="edge">
<title>fa4ac473&#45;d9a1&#45;4f06&#45;85d5&#45;3d225f9c05ba&#45;&gt;9815d1bc&#45;3445&#45;44e2&#45;98ec&#45;b222c0e7351a</title>
<path fill="none" stroke="black" d="M204.07,-99.87C219.61,-99.87 235.15,-99.87 250.69,-99.87"/>
<polygon fill="black" stroke="black" points="250.9,-103.37 260.9,-99.87 250.9,-96.37 250.9,-103.37"/>
</g>
<!-- 2f502063&#45;3b41&#45;482a&#45;af55&#45;476dcf0d7e2c -->
<g id="node5" class="node">
<title>2f502063&#45;3b41&#45;482a&#45;af55&#45;476dcf0d7e2c</title>
<polygon fill="#0ee832" stroke="black" points="212,-36 0,-36 0,0 212,0 212,-36"/>
<text text-anchor="middle" x="106" y="-14.3" font-family="Helvetica,sans-Serif" font-size="14.00">✓ Ran sandbox for `app.js`.</text>
</g>
<!-- fa4ac473&#45;d9a1&#45;4f06&#45;85d5&#45;3d225f9c05ba&#45;&gt;2f502063&#45;3b41&#45;482a&#45;af55&#45;476dcf0d7e2c -->
<g id="edge1" class="edge">
<title>fa4ac473&#45;d9a1&#45;4f06&#45;85d5&#45;3d225f9c05ba&#45;&gt;2f502063&#45;3b41&#45;482a&#45;af55&#45;476dcf0d7e2c</title>
<path fill="none" stroke="black" stroke-dasharray="5,2" d="M134.71,-73.6C129.93,-64.51 124.53,-54.24 119.72,-45.08"/>
<polygon fill="black" stroke="black" points="122.71,-43.26 114.96,-36.04 116.52,-46.52 122.71,-43.26"/>
</g>
<!-- 9815d1bc&#45;3445&#45;44e2&#45;98ec&#45;b222c0e7351a&#45;&gt;end -->
<g id="edge5" class="edge">
<title>9815d1bc&#45;3445&#45;44e2&#45;98ec&#45;b222c0e7351a&#45;&gt;end</title>
<path fill="none" stroke="black" d="M431.25,-99.87C449.9,-99.87 467.25,-99.87 477.96,-99.87"/>
<polygon fill="black" stroke="black" points="478.3,-103.37 488.3,-99.87 478.3,-96.37 478.3,-103.37"/>
<text text-anchor="middle" x="459.68" y="-106.67" font-family="Helvetica,sans-Serif" font-size="14.00">Finish</text>
</g>
<!-- 0410a4b8&#45;43c7&#45;4f96&#45;9990&#45;38aa237357b3 -->
<g id="node6" class="node">
<title>0410a4b8&#45;43c7&#45;4f96&#45;9990&#45;38aa237357b3</title>
<polygon fill="#0ee832" stroke="black" points="504,-36 230,-36 230,0 504,0 504,-36"/>
<text text-anchor="middle" x="367" y="-14.3" font-family="Helvetica,sans-Serif" font-size="14.00">✓ Ran sandbox for `test/app.test.js`.</text>
</g>
<!-- 9815d1bc&#45;3445&#45;44e2&#45;98ec&#45;b222c0e7351a&#45;&gt;0410a4b8&#45;43c7&#45;4f96&#45;9990&#45;38aa237357b3 -->
<g id="edge3" class="edge">
<title>9815d1bc&#45;3445&#45;44e2&#45;98ec&#45;b222c0e7351a&#45;&gt;0410a4b8&#45;43c7&#45;4f96&#45;9990&#45;38aa237357b3</title>
<path fill="none" stroke="black" stroke-dasharray="5,2" d="M352.88,-72.72C355.12,-64.18 357.62,-54.68 359.88,-46.08"/>
<polygon fill="black" stroke="black" points="363.33,-46.71 362.49,-36.15 356.56,-44.93 363.33,-46.71"/>
</g>
</g>
</svg>
