<?xml version="1.0" encoding="UTF-8" standalone="no"?>
<!DOCTYPE svg PUBLIC "-//W3C//DTD SVG 1.1//EN"
 "http://www.w3.org/Graphics/SVG/1.1/DTD/svg11.dtd">
<!-- Generated by graphviz version 2.43.0 (0)
 -->
<!-- Title: %3 Pages: 1 -->
<svg width="295pt" height="165pt"
 viewBox="0.00 0.00 295.00 164.74" xmlns="http://www.w3.org/2000/svg" xmlns:xlink="http://www.w3.org/1999/xlink">
<g id="graph0" class="graph" transform="scale(1 1) rotate(0) translate(36 128.74)">
<title>%3</title>
<polygon fill="dimgray" stroke="transparent" points="-36,36 -36,-128.74 259,-128.74 259,36 -36,36"/>
<text text-anchor="middle" x="111.5" y="-77.54" font-family="Helvetica,sans-Serif" font-size="14.00">Sweep&#39;s Plan &amp; Progress</text>
<!-- start -->
<g id="node1" class="node">
<title>start</title>
</g>
<!-- 72915cd2&#45;2013&#45;42a7&#45;8a8b&#45;4db6309bf85a -->
<g id="node3" class="node">
<title>72915cd2&#45;2013&#45;42a7&#45;8a8b&#45;4db6309bf85a</title>
<ellipse fill="#0ee832" stroke="black" cx="108.5" cy="-26.87" rx="55.72" ry="26.74"/>
<text text-anchor="middle" x="108.5" y="-30.67" font-family="Helvetica,sans-Serif" font-size="14.00">✓ Modify</text>
<text text-anchor="middle" x="108.5" y="-15.67" font-family="Helvetica,sans-Serif" font-size="14.00">app.js</text>
</g>
<!-- start&#45;&gt;72915cd2&#45;2013&#45;42a7&#45;8a8b&#45;4db6309bf85a -->
<g id="edge1" class="edge">
<title>start&#45;&gt;72915cd2&#45;2013&#45;42a7&#45;8a8b&#45;4db6309bf85a</title>
<path fill="none" stroke="black" d="M1.19,-26.87C4.83,-26.87 22.42,-26.87 42.33,-26.87"/>
<polygon fill="black" stroke="black" points="42.57,-30.37 52.57,-26.87 42.57,-23.37 42.57,-30.37"/>
<text text-anchor="middle" x="26.82" y="-33.67" font-family="Helvetica,sans-Serif" font-size="14.00">Start</text>
</g>
<!-- end -->
<g id="node2" class="node">
<title>end</title>
</g>
<!-- 72915cd2&#45;2013&#45;42a7&#45;8a8b&#45;4db6309bf85a&#45;&gt;end -->
<g id="edge2" class="edge">
<title>72915cd2&#45;2013&#45;42a7&#45;8a8b&#45;4db6309bf85a&#45;&gt;end</title>
<path fill="none" stroke="black" d="M164.5,-26.87C182.46,-26.87 200.56,-26.87 211.65,-26.87"/>
<polygon fill="black" stroke="black" points="211.76,-30.37 221.76,-26.87 211.76,-23.37 211.76,-30.37"/>
<text text-anchor="middle" x="193.18" y="-33.67" font-family="Helvetica,sans-Serif" font-size="14.00">Finish</text>
</g>
</g>
</svg>
