<?xml version="1.0" encoding="UTF-8" standalone="no"?>
<!DOCTYPE svg PUBLIC "-//W3C//DTD SVG 1.1//EN"
 "http://www.w3.org/Graphics/SVG/1.1/DTD/svg11.dtd">
<!-- Generated by graphviz version 2.43.0 (0)
 -->
<!-- Title: %3 Pages: 1 -->
<svg width="574pt" height="238pt"
 viewBox="0.00 0.00 573.50 237.74" xmlns="http://www.w3.org/2000/svg" xmlns:xlink="http://www.w3.org/1999/xlink">
<g id="graph0" class="graph" transform="scale(1 1) rotate(0) translate(36 201.74)">
<title>%3</title>
<polygon fill="dimgray" stroke="transparent" points="-36,36 -36,-201.74 537.5,-201.74 537.5,36 -36,36"/>
<text text-anchor="middle" x="250.75" y="-150.54" font-family="Helvetica,sans-Serif" font-size="14.00">Sweep&#39;s Plan &amp; Progress</text>
<!-- start -->
<g id="node1" class="node">
<title>start</title>
</g>
<!-- fa4ac473&#45;d9a1&#45;4f06&#45;85d5&#45;3d225f9c05ba -->
<g id="node3" class="node">
<title>fa4ac473&#45;d9a1&#45;4f06&#45;85d5&#45;3d225f9c05ba</title>
<ellipse fill="yellow" stroke="black" cx="146.5" cy="-99.87" rx="57.05" ry="26.74"/>
<text text-anchor="middle" x="146.5" y="-103.67" font-family="Helvetica,sans-Serif" font-size="14.00">⋯ Modify</text>
<text text-anchor="middle" x="146.5" y="-88.67" font-family="Helvetica,sans-Serif" font-size="14.00">app.js</text>
</g>
<!-- start&#45;&gt;fa4ac473&#45;d9a1&#45;4f06&#45;85d5&#45;3d225f9c05ba -->
<g id="edge4" class="edge">
<title>start&#45;&gt;fa4ac473&#45;d9a1&#45;4f06&#45;85d5&#45;3d225f9c05ba</title>
<path fill="none" stroke="black" d="M38.2,-99.87C41.83,-99.87 59.17,-99.87 78.96,-99.87"/>
<polygon fill="black" stroke="black" points="79.14,-103.37 89.14,-99.87 79.14,-96.37 79.14,-103.37"/>
<text text-anchor="middle" x="63.61" y="-106.67" font-family="Helvetica,sans-Serif" font-size="14.00">Start</text>
</g>
<!-- end -->
<g id="node2" class="node">
<title>end</title>
</g>
<!-- 9815d1bc&#45;3445&#45;44e2&#45;98ec&#45;b222c0e7351a -->
<g id="node4" class="node">
<title>9815d1bc&#45;3445&#45;44e2&#45;98ec&#45;b222c0e7351a</title>
<ellipse fill="white" stroke="black" cx="345.5" cy="-99.87" rx="84.71" ry="26.74"/>
<text text-anchor="middle" x="345.5" y="-103.67" font-family="Helvetica,sans-Serif" font-size="14.00">▶ Modify</text>
<text text-anchor="middle" x="345.5" y="-88.67" font-family="Helvetica,sans-Serif" font-size="14.00">test/app.test.js</text>
</g>
<!-- fa4ac473&#45;d9a1&#45;4f06&#45;85d5&#45;3d225f9c05ba&#45;&gt;9815d1bc&#45;3445&#45;44e2&#45;98ec&#45;b222c0e7351a -->
<g id="edge2" class="edge">
<title>fa4ac473&#45;d9a1&#45;4f06&#45;85d5&#45;3d225f9c05ba&#45;&gt;9815d1bc&#45;3445&#45;44e2&#45;98ec&#45;b222c0e7351a</title>
<path fill="none" stroke="black" d="M204.02,-99.87C219.44,-99.87 234.85,-99.87 250.26,-99.87"/>
<polygon fill="black" stroke="black" points="250.39,-103.37 260.39,-99.87 250.39,-96.37 250.39,-103.37"/>
</g>
<!-- 2f502063&#45;3b41&#45;482a&#45;af55&#45;476dcf0d7e2c -->
<g id="node5" class="node">
<title>2f502063&#45;3b41&#45;482a&#45;af55&#45;476dcf0d7e2c</title>
<polygon fill="white" stroke="black" points="211,-36 0,-36 0,0 211,0 211,-36"/>
<text text-anchor="middle" x="105.5" y="-14.3" font-family="Helvetica,sans-Serif" font-size="14.00">▶ Ran sandbox for `app.js`.</text>
</g>
<!-- fa4ac473&#45;d9a1&#45;4f06&#45;85d5&#45;3d225f9c05ba&#45;&gt;2f502063&#45;3b41&#45;482a&#45;af55&#45;476dcf0d7e2c -->
<g id="edge1" class="edge">
<title>fa4ac473&#45;d9a1&#45;4f06&#45;85d5&#45;3d225f9c05ba&#45;&gt;2f502063&#45;3b41&#45;482a&#45;af55&#45;476dcf0d7e2c</title>
<path fill="none" stroke="black" stroke-dasharray="5,2" d="M133.53,-73.6C128.86,-64.51 123.59,-54.24 118.89,-45.08"/>
<polygon fill="black" stroke="black" points="121.93,-43.33 114.25,-36.04 115.7,-46.53 121.93,-43.33"/>
</g>
<!-- 9815d1bc&#45;3445&#45;44e2&#45;98ec&#45;b222c0e7351a&#45;&gt;end -->
<g id="edge5" class="edge">
<title>9815d1bc&#45;3445&#45;44e2&#45;98ec&#45;b222c0e7351a&#45;&gt;end</title>
<path fill="none" stroke="black" d="M430.75,-99.87C449.4,-99.87 466.75,-99.87 477.46,-99.87"/>
<polygon fill="black" stroke="black" points="477.8,-103.37 487.8,-99.87 477.8,-96.37 477.8,-103.37"/>
<text text-anchor="middle" x="459.18" y="-106.67" font-family="Helvetica,sans-Serif" font-size="14.00">Finish</text>
</g>
<!-- 0410a4b8&#45;43c7&#45;4f96&#45;9990&#45;38aa237357b3 -->
<g id="node6" class="node">
<title>0410a4b8&#45;43c7&#45;4f96&#45;9990&#45;38aa237357b3</title>
<polygon fill="white" stroke="black" points="501.5,-36 229.5,-36 229.5,0 501.5,0 501.5,-36"/>
<text text-anchor="middle" x="365.5" y="-14.3" font-family="Helvetica,sans-Serif" font-size="14.00">▶ Ran sandbox for `test/app.test.js`.</text>
</g>
<!-- 9815d1bc&#45;3445&#45;44e2&#45;98ec&#45;b222c0e7351a&#45;&gt;0410a4b8&#45;43c7&#45;4f96&#45;9990&#45;38aa237357b3 -->
<g id="edge3" class="edge">
<title>9815d1bc&#45;3445&#45;44e2&#45;98ec&#45;b222c0e7351a&#45;&gt;0410a4b8&#45;43c7&#45;4f96&#45;9990&#45;38aa237357b3</title>
<path fill="none" stroke="black" stroke-dasharray="5,2" d="M352.05,-72.72C354.19,-64.18 356.57,-54.68 358.72,-46.08"/>
<polygon fill="black" stroke="black" points="362.17,-46.7 361.21,-36.15 355.38,-45 362.17,-46.7"/>
</g>
</g>
</svg>
