<?xml version="1.0" encoding="UTF-8" standalone="no"?>
<!DOCTYPE svg PUBLIC "-//W3C//DTD SVG 1.1//EN"
 "http://www.w3.org/Graphics/SVG/1.1/DTD/svg11.dtd">
<!-- Generated by graphviz version 2.43.0 (0)
 -->
<!-- Title: %3 Pages: 1 -->
<svg width="297pt" height="238pt"
 viewBox="0.00 0.00 297.00 237.74" xmlns="http://www.w3.org/2000/svg" xmlns:xlink="http://www.w3.org/1999/xlink">
<g id="graph0" class="graph" transform="scale(1 1) rotate(0) translate(36 201.74)">
<title>%3</title>
<polygon fill="dimgray" stroke="transparent" points="-36,36 -36,-201.74 261,-201.74 261,36 -36,36"/>
<text text-anchor="middle" x="112.5" y="-150.54" font-family="Helvetica,sans-Serif" font-size="14.00">Sweep&#39;s Plan &amp; Progress</text>
<!-- start -->
<g id="node1" class="node">
<title>start</title>
</g>
<!-- 54b19db9&#45;c34e&#45;4142&#45;a748&#45;26b4696d4cba -->
<g id="node3" class="node">
<title>54b19db9&#45;c34e&#45;4142&#45;a748&#45;26b4696d4cba</title>
<ellipse fill="yellow" stroke="black" cx="109.5" cy="-99.87" rx="57.05" ry="26.74"/>
<text text-anchor="middle" x="109.5" y="-103.67" font-family="Helvetica,sans-Serif" font-size="14.00">⋯ Modify</text>
<text text-anchor="middle" x="109.5" y="-88.67" font-family="Helvetica,sans-Serif" font-size="14.00">app.js</text>
</g>
<!-- start&#45;&gt;54b19db9&#45;c34e&#45;4142&#45;a748&#45;26b4696d4cba -->
<g id="edge2" class="edge">
<title>start&#45;&gt;54b19db9&#45;c34e&#45;4142&#45;a748&#45;26b4696d4cba</title>
<path fill="none" stroke="black" d="M1.2,-99.87C4.83,-99.87 22.17,-99.87 41.96,-99.87"/>
<polygon fill="black" stroke="black" points="42.14,-103.37 52.14,-99.87 42.14,-96.37 42.14,-103.37"/>
<text text-anchor="middle" x="26.61" y="-106.67" font-family="Helvetica,sans-Serif" font-size="14.00">Start</text>
</g>
<!-- end -->
<g id="node2" class="node">
<title>end</title>
</g>
<!-- 54b19db9&#45;c34e&#45;4142&#45;a748&#45;26b4696d4cba&#45;&gt;end -->
<g id="edge3" class="edge">
<title>54b19db9&#45;c34e&#45;4142&#45;a748&#45;26b4696d4cba&#45;&gt;end</title>
<path fill="none" stroke="black" d="M167,-99.87C184.71,-99.87 202.42,-99.87 213.41,-99.87"/>
<polygon fill="black" stroke="black" points="213.77,-103.37 223.77,-99.87 213.77,-96.37 213.77,-103.37"/>
<text text-anchor="middle" x="195.39" y="-106.67" font-family="Helvetica,sans-Serif" font-size="14.00">Finish</text>
</g>
<!-- f945d01b&#45;4d31&#45;4f0d&#45;a963&#45;690dbd1f0afb -->
<g id="node4" class="node">
<title>f945d01b&#45;4d31&#45;4f0d&#45;a963&#45;690dbd1f0afb</title>
<polygon fill="white" stroke="black" points="215,-36 4,-36 4,0 215,0 215,-36"/>
<text text-anchor="middle" x="109.5" y="-14.3" font-family="Helvetica,sans-Serif" font-size="14.00">▶ Ran sandbox for `app.js`.</text>
</g>
<!-- 54b19db9&#45;c34e&#45;4142&#45;a748&#45;26b4696d4cba&#45;&gt;f945d01b&#45;4d31&#45;4f0d&#45;a963&#45;690dbd1f0afb -->
<g id="edge1" class="edge">
<title>54b19db9&#45;c34e&#45;4142&#45;a748&#45;26b4696d4cba&#45;&gt;f945d01b&#45;4d31&#45;4f0d&#45;a963&#45;690dbd1f0afb</title>
<path fill="none" stroke="black" stroke-dasharray="5,2" d="M109.5,-72.72C109.5,-64.27 109.5,-54.89 109.5,-46.36"/>
<polygon fill="black" stroke="black" points="113,-46.15 109.5,-36.15 106,-46.15 113,-46.15"/>
</g>
</g>
</svg>
