<?xml version="1.0" encoding="UTF-8" standalone="no"?>
<!DOCTYPE svg PUBLIC "-//W3C//DTD SVG 1.1//EN"
 "http://www.w3.org/Graphics/SVG/1.1/DTD/svg11.dtd">
<!-- Generated by graphviz version 2.43.0 (0)
 -->
<!-- Title: %3 Pages: 1 -->
<svg width="913pt" height="238pt"
 viewBox="0.00 0.00 913.00 237.74" xmlns="http://www.w3.org/2000/svg" xmlns:xlink="http://www.w3.org/1999/xlink">
<g id="graph0" class="graph" transform="scale(1 1) rotate(0) translate(36 201.74)">
<title>%3</title>
<polygon fill="dimgray" stroke="transparent" points="-36,36 -36,-201.74 877,-201.74 877,36 -36,36"/>
<text text-anchor="middle" x="420.5" y="-150.54" font-family="Helvetica,sans-Serif" font-size="14.00">Sweep&#39;s Plan &amp; Progress</text>
<!-- start -->
<g id="node1" class="node">
<title>start</title>
</g>
<!-- 646bacb0&#45;538c&#45;4535&#45;8f94&#45;d2943e33c745 -->
<g id="node3" class="node">
<title>646bacb0&#45;538c&#45;4535&#45;8f94&#45;d2943e33c745</title>
<ellipse fill="#0ee832" stroke="black" cx="181.5" cy="-99.87" rx="55.31" ry="26.74"/>
<text text-anchor="middle" x="181.5" y="-103.67" font-family="Helvetica,sans-Serif" font-size="14.00">✓ Create</text>
<text text-anchor="middle" x="181.5" y="-88.67" font-family="Helvetica,sans-Serif" font-size="14.00">db.js</text>
</g>
<!-- start&#45;&gt;646bacb0&#45;538c&#45;4535&#45;8f94&#45;d2943e33c745 -->
<g id="edge6" class="edge">
<title>start&#45;&gt;646bacb0&#45;538c&#45;4535&#45;8f94&#45;d2943e33c745</title>
<path fill="none" stroke="black" d="M75.18,-99.87C78.79,-99.87 96.21,-99.87 115.94,-99.87"/>
<polygon fill="black" stroke="black" points="116.09,-103.37 126.09,-99.87 116.09,-96.37 116.09,-103.37"/>
<text text-anchor="middle" x="100.67" y="-106.67" font-family="Helvetica,sans-Serif" font-size="14.00">Start</text>
</g>
<!-- end -->
<g id="node2" class="node">
<title>end</title>
</g>
<!-- d9717793&#45;e634&#45;443a&#45;87ce&#45;640e9efb8a66 -->
<g id="node4" class="node">
<title>d9717793&#45;e634&#45;443a&#45;87ce&#45;640e9efb8a66</title>
<ellipse fill="#0ee832" stroke="black" cx="388.5" cy="-99.87" rx="55.72" ry="26.74"/>
<text text-anchor="middle" x="388.5" y="-103.67" font-family="Helvetica,sans-Serif" font-size="14.00">✓ Modify</text>
<text text-anchor="middle" x="388.5" y="-88.67" font-family="Helvetica,sans-Serif" font-size="14.00">app.js</text>
</g>
<!-- 646bacb0&#45;538c&#45;4535&#45;8f94&#45;d2943e33c745&#45;&gt;d9717793&#45;e634&#45;443a&#45;87ce&#45;640e9efb8a66 -->
<g id="edge2" class="edge">
<title>646bacb0&#45;538c&#45;4535&#45;8f94&#45;d2943e33c745&#45;&gt;d9717793&#45;e634&#45;443a&#45;87ce&#45;640e9efb8a66</title>
<path fill="none" stroke="black" d="M236.89,-99.87C265.41,-99.87 293.93,-99.87 322.45,-99.87"/>
<polygon fill="black" stroke="black" points="322.53,-103.37 332.53,-99.87 322.53,-96.37 322.53,-103.37"/>
</g>
<!-- 0e3b3fcd&#45;5791&#45;42a6&#45;8c4e&#45;71bc050698f2 -->
<g id="node6" class="node">
<title>0e3b3fcd&#45;5791&#45;42a6&#45;8c4e&#45;71bc050698f2</title>
<polygon fill="#0ee832" stroke="black" points="243,-36 0,-36 0,0 243,0 243,-36"/>
<text text-anchor="middle" x="121.5" y="-14.3" font-family="Helvetica,sans-Serif" font-size="14.00">✓ Run GitHub Actions for `db.js`</text>
</g>
<!-- 646bacb0&#45;538c&#45;4535&#45;8f94&#45;d2943e33c745&#45;&gt;0e3b3fcd&#45;5791&#45;42a6&#45;8c4e&#45;71bc050698f2 -->
<g id="edge1" class="edge">
<title>646bacb0&#45;538c&#45;4535&#45;8f94&#45;d2943e33c745&#45;&gt;0e3b3fcd&#45;5791&#45;42a6&#45;8c4e&#45;71bc050698f2</title>
<path fill="none" stroke="black" stroke-dasharray="5,2" d="M163.17,-74.47C155.98,-64.89 147.72,-53.9 140.46,-44.24"/>
<polygon fill="black" stroke="black" points="143.2,-42.05 134.39,-36.16 137.6,-46.26 143.2,-42.05"/>
</g>
<!-- 9187c7eb&#45;073b&#45;4257&#45;bb46&#45;ed2d732272bf -->
<g id="node5" class="node">
<title>9187c7eb&#45;073b&#45;4257&#45;bb46&#45;ed2d732272bf</title>
<ellipse fill="white" stroke="black" cx="624.5" cy="-99.87" rx="82.05" ry="26.74"/>
<text text-anchor="middle" x="624.5" y="-103.67" font-family="Helvetica,sans-Serif" font-size="14.00">▶ Modify</text>
<text text-anchor="middle" x="624.5" y="-88.67" font-family="Helvetica,sans-Serif" font-size="14.00">seeds/index.js</text>
</g>
<!-- d9717793&#45;e634&#45;443a&#45;87ce&#45;640e9efb8a66&#45;&gt;9187c7eb&#45;073b&#45;4257&#45;bb46&#45;ed2d732272bf -->
<g id="edge4" class="edge">
<title>d9717793&#45;e634&#45;443a&#45;87ce&#45;640e9efb8a66&#45;&gt;9187c7eb&#45;073b&#45;4257&#45;bb46&#45;ed2d732272bf</title>
<path fill="none" stroke="black" d="M444.73,-99.87C473.84,-99.87 502.94,-99.87 532.05,-99.87"/>
<polygon fill="black" stroke="black" points="532.34,-103.37 542.34,-99.87 532.34,-96.37 532.34,-103.37"/>
</g>
<!-- 209eec3c&#45;14f9&#45;4739&#45;b556&#45;902f4bc6fb92 -->
<g id="node7" class="node">
<title>209eec3c&#45;14f9&#45;4739&#45;b556&#45;902f4bc6fb92</title>
<polygon fill="yellow" stroke="black" points="515.5,-36 261.5,-36 261.5,0 515.5,0 515.5,-36"/>
<text text-anchor="middle" x="388.5" y="-14.3" font-family="Helvetica,sans-Serif" font-size="14.00">⋯ Run GitHub Actions for `app.js`</text>
</g>
<!-- d9717793&#45;e634&#45;443a&#45;87ce&#45;640e9efb8a66&#45;&gt;209eec3c&#45;14f9&#45;4739&#45;b556&#45;902f4bc6fb92 -->
<g id="edge3" class="edge">
<title>d9717793&#45;e634&#45;443a&#45;87ce&#45;640e9efb8a66&#45;&gt;209eec3c&#45;14f9&#45;4739&#45;b556&#45;902f4bc6fb92</title>
<path fill="none" stroke="black" stroke-dasharray="5,2" d="M388.5,-72.72C388.5,-64.27 388.5,-54.89 388.5,-46.36"/>
<polygon fill="black" stroke="black" points="392,-46.15 388.5,-36.15 385,-46.15 392,-46.15"/>
</g>
<!-- 9187c7eb&#45;073b&#45;4257&#45;bb46&#45;ed2d732272bf&#45;&gt;end -->
<g id="edge7" class="edge">
<title>9187c7eb&#45;073b&#45;4257&#45;bb46&#45;ed2d732272bf&#45;&gt;end</title>
<path fill="none" stroke="black" d="M706.75,-99.87C725.52,-99.87 743.08,-99.87 753.8,-99.87"/>
<polygon fill="black" stroke="black" points="753.8,-103.37 763.8,-99.87 753.8,-96.37 753.8,-103.37"/>
<text text-anchor="middle" x="735.26" y="-106.67" font-family="Helvetica,sans-Serif" font-size="14.00">Finish</text>
</g>
<!-- e7255fc1&#45;63db&#45;455e&#45;a305&#45;eac507b84e67 -->
<g id="node8" class="node">
<title>e7255fc1&#45;63db&#45;455e&#45;a305&#45;eac507b84e67</title>
<polygon fill="white" stroke="black" points="841,-36 534,-36 534,0 841,0 841,-36"/>
<text text-anchor="middle" x="687.5" y="-14.3" font-family="Helvetica,sans-Serif" font-size="14.00">▶ Run GitHub Actions for `seeds/index.js`</text>
</g>
<!-- 9187c7eb&#45;073b&#45;4257&#45;bb46&#45;ed2d732272bf&#45;&gt;e7255fc1&#45;63db&#45;455e&#45;a305&#45;eac507b84e67 -->
<g id="edge5" class="edge">
<title>9187c7eb&#45;073b&#45;4257&#45;bb46&#45;ed2d732272bf&#45;&gt;e7255fc1&#45;63db&#45;455e&#45;a305&#45;eac507b84e67</title>
<path fill="none" stroke="black" stroke-dasharray="5,2" d="M644.43,-73.6C651.91,-64.13 660.39,-53.37 667.83,-43.93"/>
<polygon fill="black" stroke="black" points="670.62,-46.06 674.06,-36.04 665.12,-41.72 670.62,-46.06"/>
</g>
</g>
</svg>
