<?xml version="1.0" encoding="UTF-8" standalone="no"?>
<!DOCTYPE svg PUBLIC "-//W3C//DTD SVG 1.1//EN"
 "http://www.w3.org/Graphics/SVG/1.1/DTD/svg11.dtd">
<!-- Generated by graphviz version 2.43.0 (0)
 -->
<!-- Title: %3 Pages: 1 -->
<svg width="908pt" height="238pt"
 viewBox="0.00 0.00 907.50 237.74" xmlns="http://www.w3.org/2000/svg" xmlns:xlink="http://www.w3.org/1999/xlink">
<g id="graph0" class="graph" transform="scale(1 1) rotate(0) translate(36 201.74)">
<title>%3</title>
<polygon fill="dimgray" stroke="transparent" points="-36,36 -36,-201.74 871.5,-201.74 871.5,36 -36,36"/>
<text text-anchor="middle" x="417.75" y="-150.54" font-family="Helvetica,sans-Serif" font-size="14.00">Sweep&#39;s Plan &amp; Progress</text>
<!-- start -->
<g id="node1" class="node">
<title>start</title>
</g>
<!-- 646bacb0&#45;538c&#45;4535&#45;8f94&#45;d2943e33c745 -->
<g id="node3" class="node">
<title>646bacb0&#45;538c&#45;4535&#45;8f94&#45;d2943e33c745</title>
<ellipse fill="yellow" stroke="black" cx="179" cy="-99.87" rx="56.64" ry="26.74"/>
<text text-anchor="middle" x="179" y="-103.67" font-family="Helvetica,sans-Serif" font-size="14.00">⋯ Create</text>
<text text-anchor="middle" x="179" y="-88.67" font-family="Helvetica,sans-Serif" font-size="14.00">db.js</text>
</g>
<!-- start&#45;&gt;646bacb0&#45;538c&#45;4535&#45;8f94&#45;d2943e33c745 -->
<g id="edge6" class="edge">
<title>start&#45;&gt;646bacb0&#45;538c&#45;4535&#45;8f94&#45;d2943e33c745</title>
<path fill="none" stroke="black" d="M70.7,-99.87C74.37,-99.87 92.13,-99.87 112.24,-99.87"/>
<polygon fill="black" stroke="black" points="112.25,-103.37 122.25,-99.87 112.25,-96.37 112.25,-103.37"/>
<text text-anchor="middle" x="96.47" y="-106.67" font-family="Helvetica,sans-Serif" font-size="14.00">Start</text>
</g>
<!-- end -->
<g id="node2" class="node">
<title>end</title>
</g>
<!-- d9717793&#45;e634&#45;443a&#45;87ce&#45;640e9efb8a66 -->
<g id="node4" class="node">
<title>d9717793&#45;e634&#45;443a&#45;87ce&#45;640e9efb8a66</title>
<ellipse fill="white" stroke="black" cx="385" cy="-99.87" rx="54.39" ry="26.74"/>
<text text-anchor="middle" x="385" y="-103.67" font-family="Helvetica,sans-Serif" font-size="14.00">▶ Modify</text>
<text text-anchor="middle" x="385" y="-88.67" font-family="Helvetica,sans-Serif" font-size="14.00">app.js</text>
</g>
<!-- 646bacb0&#45;538c&#45;4535&#45;8f94&#45;d2943e33c745&#45;&gt;d9717793&#45;e634&#45;443a&#45;87ce&#45;640e9efb8a66 -->
<g id="edge2" class="edge">
<title>646bacb0&#45;538c&#45;4535&#45;8f94&#45;d2943e33c745&#45;&gt;d9717793&#45;e634&#45;443a&#45;87ce&#45;640e9efb8a66</title>
<path fill="none" stroke="black" d="M235.73,-99.87C263.86,-99.87 291.99,-99.87 320.12,-99.87"/>
<polygon fill="black" stroke="black" points="320.48,-103.37 330.48,-99.87 320.48,-96.37 320.48,-103.37"/>
</g>
<!-- 0e3b3fcd&#45;5791&#45;42a6&#45;8c4e&#45;71bc050698f2 -->
<g id="node6" class="node">
<title>0e3b3fcd&#45;5791&#45;42a6&#45;8c4e&#45;71bc050698f2</title>
<polygon fill="white" stroke="black" points="242,-36 0,-36 0,0 242,0 242,-36"/>
<text text-anchor="middle" x="121" y="-14.3" font-family="Helvetica,sans-Serif" font-size="14.00">▶ Run GitHub Actions for `db.js`</text>
</g>
<!-- 646bacb0&#45;538c&#45;4535&#45;8f94&#45;d2943e33c745&#45;&gt;0e3b3fcd&#45;5791&#45;42a6&#45;8c4e&#45;71bc050698f2 -->
<g id="edge1" class="edge">
<title>646bacb0&#45;538c&#45;4535&#45;8f94&#45;d2943e33c745&#45;&gt;0e3b3fcd&#45;5791&#45;42a6&#45;8c4e&#45;71bc050698f2</title>
<path fill="none" stroke="black" stroke-dasharray="5,2" d="M160.97,-74.04C154.14,-64.64 146.37,-53.94 139.5,-44.48"/>
<polygon fill="black" stroke="black" points="142.22,-42.26 133.51,-36.22 136.55,-46.37 142.22,-42.26"/>
</g>
<!-- 9187c7eb&#45;073b&#45;4257&#45;bb46&#45;ed2d732272bf -->
<g id="node5" class="node">
<title>9187c7eb&#45;073b&#45;4257&#45;bb46&#45;ed2d732272bf</title>
<ellipse fill="white" stroke="black" cx="620" cy="-99.87" rx="82.05" ry="26.74"/>
<text text-anchor="middle" x="620" y="-103.67" font-family="Helvetica,sans-Serif" font-size="14.00">▶ Modify</text>
<text text-anchor="middle" x="620" y="-88.67" font-family="Helvetica,sans-Serif" font-size="14.00">seeds/index.js</text>
</g>
<!-- d9717793&#45;e634&#45;443a&#45;87ce&#45;640e9efb8a66&#45;&gt;9187c7eb&#45;073b&#45;4257&#45;bb46&#45;ed2d732272bf -->
<g id="edge4" class="edge">
<title>d9717793&#45;e634&#45;443a&#45;87ce&#45;640e9efb8a66&#45;&gt;9187c7eb&#45;073b&#45;4257&#45;bb46&#45;ed2d732272bf</title>
<path fill="none" stroke="black" d="M439.62,-99.87C468.93,-99.87 498.24,-99.87 527.55,-99.87"/>
<polygon fill="black" stroke="black" points="527.91,-103.37 537.91,-99.87 527.91,-96.37 527.91,-103.37"/>
</g>
<!-- 209eec3c&#45;14f9&#45;4739&#45;b556&#45;902f4bc6fb92 -->
<g id="node7" class="node">
<title>209eec3c&#45;14f9&#45;4739&#45;b556&#45;902f4bc6fb92</title>
<polygon fill="white" stroke="black" points="510,-36 260,-36 260,0 510,0 510,-36"/>
<text text-anchor="middle" x="385" y="-14.3" font-family="Helvetica,sans-Serif" font-size="14.00">▶ Run GitHub Actions for `app.js`</text>
</g>
<!-- d9717793&#45;e634&#45;443a&#45;87ce&#45;640e9efb8a66&#45;&gt;209eec3c&#45;14f9&#45;4739&#45;b556&#45;902f4bc6fb92 -->
<g id="edge3" class="edge">
<title>d9717793&#45;e634&#45;443a&#45;87ce&#45;640e9efb8a66&#45;&gt;209eec3c&#45;14f9&#45;4739&#45;b556&#45;902f4bc6fb92</title>
<path fill="none" stroke="black" stroke-dasharray="5,2" d="M385,-72.72C385,-64.27 385,-54.89 385,-46.36"/>
<polygon fill="black" stroke="black" points="388.5,-46.15 385,-36.15 381.5,-46.15 388.5,-46.15"/>
</g>
<!-- 9187c7eb&#45;073b&#45;4257&#45;bb46&#45;ed2d732272bf&#45;&gt;end -->
<g id="edge7" class="edge">
<title>9187c7eb&#45;073b&#45;4257&#45;bb46&#45;ed2d732272bf&#45;&gt;end</title>
<path fill="none" stroke="black" d="M702.25,-99.87C721.02,-99.87 738.58,-99.87 749.3,-99.87"/>
<polygon fill="black" stroke="black" points="749.3,-103.37 759.3,-99.87 749.3,-96.37 749.3,-103.37"/>
<text text-anchor="middle" x="730.76" y="-106.67" font-family="Helvetica,sans-Serif" font-size="14.00">Finish</text>
</g>
<!-- e7255fc1&#45;63db&#45;455e&#45;a305&#45;eac507b84e67 -->
<g id="node8" class="node">
<title>e7255fc1&#45;63db&#45;455e&#45;a305&#45;eac507b84e67</title>
<polygon fill="white" stroke="black" points="835.5,-36 528.5,-36 528.5,0 835.5,0 835.5,-36"/>
<text text-anchor="middle" x="682" y="-14.3" font-family="Helvetica,sans-Serif" font-size="14.00">▶ Run GitHub Actions for `seeds/index.js`</text>
</g>
<!-- 9187c7eb&#45;073b&#45;4257&#45;bb46&#45;ed2d732272bf&#45;&gt;e7255fc1&#45;63db&#45;455e&#45;a305&#45;eac507b84e67 -->
<g id="edge5" class="edge">
<title>9187c7eb&#45;073b&#45;4257&#45;bb46&#45;ed2d732272bf&#45;&gt;e7255fc1&#45;63db&#45;455e&#45;a305&#45;eac507b84e67</title>
<path fill="none" stroke="black" stroke-dasharray="5,2" d="M639.62,-73.6C646.9,-64.22 655.15,-53.59 662.42,-44.22"/>
<polygon fill="black" stroke="black" points="665.41,-46.08 668.78,-36.04 659.88,-41.79 665.41,-46.08"/>
</g>
</g>
</svg>
