<?xml version="1.0" encoding="UTF-8" standalone="no"?>
<!DOCTYPE svg PUBLIC "-//W3C//DTD SVG 1.1//EN"
 "http://www.w3.org/Graphics/SVG/1.1/DTD/svg11.dtd">
<!-- Generated by graphviz version 2.43.0 (0)
 -->
<!-- Title: %3 Pages: 1 -->
<svg width="297pt" height="165pt"
 viewBox="0.00 0.00 297.00 164.74" xmlns="http://www.w3.org/2000/svg" xmlns:xlink="http://www.w3.org/1999/xlink">
<g id="graph0" class="graph" transform="scale(1 1) rotate(0) translate(36 128.74)">
<title>%3</title>
<polygon fill="dimgray" stroke="transparent" points="-36,36 -36,-128.74 261,-128.74 261,36 -36,36"/>
<text text-anchor="middle" x="112.5" y="-77.54" font-family="Helvetica,sans-Serif" font-size="14.00">Sweep&#39;s Plan &amp; Progress</text>
<!-- start -->
<g id="node1" class="node">
<title>start</title>
</g>
<!-- 72915cd2&#45;2013&#45;42a7&#45;8a8b&#45;4db6309bf85a -->
<g id="node3" class="node">
<title>72915cd2&#45;2013&#45;42a7&#45;8a8b&#45;4db6309bf85a</title>
<ellipse fill="yellow" stroke="black" cx="109.5" cy="-26.87" rx="57.05" ry="26.74"/>
<text text-anchor="middle" x="109.5" y="-30.67" font-family="Helvetica,sans-Serif" font-size="14.00">⋯ Modify</text>
<text text-anchor="middle" x="109.5" y="-15.67" font-family="Helvetica,sans-Serif" font-size="14.00">app.js</text>
</g>
<!-- start&#45;&gt;72915cd2&#45;2013&#45;42a7&#45;8a8b&#45;4db6309bf85a -->
<g id="edge1" class="edge">
<title>start&#45;&gt;72915cd2&#45;2013&#45;42a7&#45;8a8b&#45;4db6309bf85a</title>
<path fill="none" stroke="black" d="M1.2,-26.87C4.83,-26.87 22.17,-26.87 41.96,-26.87"/>
<polygon fill="black" stroke="black" points="42.14,-30.37 52.14,-26.87 42.14,-23.37 42.14,-30.37"/>
<text text-anchor="middle" x="26.61" y="-33.67" font-family="Helvetica,sans-Serif" font-size="14.00">Start</text>
</g>
<!-- end -->
<g id="node2" class="node">
<title>end</title>
</g>
<!-- 72915cd2&#45;2013&#45;42a7&#45;8a8b&#45;4db6309bf85a&#45;&gt;end -->
<g id="edge2" class="edge">
<title>72915cd2&#45;2013&#45;42a7&#45;8a8b&#45;4db6309bf85a&#45;&gt;end</title>
<path fill="none" stroke="black" d="M167,-26.87C184.71,-26.87 202.42,-26.87 213.41,-26.87"/>
<polygon fill="black" stroke="black" points="213.77,-30.37 223.77,-26.87 213.77,-23.37 213.77,-30.37"/>
<text text-anchor="middle" x="195.39" y="-33.67" font-family="Helvetica,sans-Serif" font-size="14.00">Finish</text>
</g>
</g>
</svg>
