<?xml version="1.0" encoding="UTF-8" standalone="no"?>
<!DOCTYPE svg PUBLIC "-//W3C//DTD SVG 1.1//EN"
 "http://www.w3.org/Graphics/SVG/1.1/DTD/svg11.dtd">
<!-- Generated by graphviz version 2.43.0 (0)
 -->
<!-- Title: %3 Pages: 1 -->
<svg width="500pt" height="165pt"
 viewBox="0.00 0.00 500.00 164.74" xmlns="http://www.w3.org/2000/svg" xmlns:xlink="http://www.w3.org/1999/xlink">
<g id="graph0" class="graph" transform="scale(1 1) rotate(0) translate(36 128.74)">
<title>%3</title>
<polygon fill="dimgray" stroke="transparent" points="-36,36 -36,-128.74 464,-128.74 464,36 -36,36"/>
<text text-anchor="middle" x="214" y="-77.54" font-family="Helvetica,sans-Serif" font-size="14.00">Sweep&#39;s Plan &amp; Progress</text>
<!-- start -->
<g id="node1" class="node">
<title>start</title>
</g>
<!-- 3453efd9&#45;b86a&#45;4234&#45;95da&#45;aa4fd71c2036 -->
<g id="node3" class="node">
<title>3453efd9&#45;b86a&#45;4234&#45;95da&#45;aa4fd71c2036</title>
<ellipse fill="#ee0000" stroke="black" cx="108.5" cy="-26.87" rx="55.72" ry="26.74"/>
<text text-anchor="middle" x="108.5" y="-30.67" font-family="Helvetica,sans-Serif" font-size="14.00">✗ Modify</text>
<text text-anchor="middle" x="108.5" y="-15.67" font-family="Helvetica,sans-Serif" font-size="14.00">app.js</text>
</g>
<!-- start&#45;&gt;3453efd9&#45;b86a&#45;4234&#45;95da&#45;aa4fd71c2036 -->
<g id="edge2" class="edge">
<title>start&#45;&gt;3453efd9&#45;b86a&#45;4234&#45;95da&#45;aa4fd71c2036</title>
<path fill="none" stroke="black" d="M1.19,-26.87C4.83,-26.87 22.42,-26.87 42.33,-26.87"/>
<polygon fill="black" stroke="black" points="42.57,-30.37 52.57,-26.87 42.57,-23.37 42.57,-30.37"/>
<text text-anchor="middle" x="26.82" y="-33.67" font-family="Helvetica,sans-Serif" font-size="14.00">Start</text>
</g>
<!-- end -->
<g id="node2" class="node">
<title>end</title>
</g>
<!-- eec08045&#45;559a&#45;4d88&#45;907b&#45;a0ea7fb4ac8d -->
<g id="node4" class="node">
<title>eec08045&#45;559a&#45;4d88&#45;907b&#45;a0ea7fb4ac8d</title>
<ellipse fill="yellow" stroke="black" cx="284.5" cy="-26.87" rx="84.71" ry="26.74"/>
<text text-anchor="middle" x="284.5" y="-30.67" font-family="Helvetica,sans-Serif" font-size="14.00">⋯ Modify</text>
<text text-anchor="middle" x="284.5" y="-15.67" font-family="Helvetica,sans-Serif" font-size="14.00">test/app.test.js</text>
</g>
<!-- 3453efd9&#45;b86a&#45;4234&#45;95da&#45;aa4fd71c2036&#45;&gt;eec08045&#45;559a&#45;4d88&#45;907b&#45;a0ea7fb4ac8d -->
<g id="edge1" class="edge">
<title>3453efd9&#45;b86a&#45;4234&#45;95da&#45;aa4fd71c2036&#45;&gt;eec08045&#45;559a&#45;4d88&#45;907b&#45;a0ea7fb4ac8d</title>
<path fill="none" stroke="black" d="M164.53,-26.87C172.75,-26.87 180.97,-26.87 189.19,-26.87"/>
<polygon fill="black" stroke="black" points="189.21,-30.37 199.21,-26.87 189.21,-23.37 189.21,-30.37"/>
</g>
<!-- eec08045&#45;559a&#45;4d88&#45;907b&#45;a0ea7fb4ac8d&#45;&gt;end -->
<g id="edge3" class="edge">
<title>eec08045&#45;559a&#45;4d88&#45;907b&#45;a0ea7fb4ac8d&#45;&gt;end</title>
<path fill="none" stroke="black" d="M369.75,-26.87C388.4,-26.87 405.75,-26.87 416.46,-26.87"/>
<polygon fill="black" stroke="black" points="416.8,-30.37 426.8,-26.87 416.8,-23.37 416.8,-30.37"/>
<text text-anchor="middle" x="398.18" y="-33.67" font-family="Helvetica,sans-Serif" font-size="14.00">Finish</text>
</g>
</g>
</svg>
